Coordinates
version=1
nRows=7
nColumns=63
inDegrees=yes

Units are S.I. units (second, meters, Newtons, ...)
If the header above contains a line with 'inDegrees', this indicates whether rotational values are in degrees (yes) or radians (no).

endheader
time	pelvis_tilt	pelvis_list	pelvis_rotation	pelvis_tx	pelvis_ty	pelvis_tz	hip_flexion_r	hip_adduction_r	hip_rotation_r	knee_angle_r	knee_angle_r_beta	ankle_angle_r	subtalar_angle_r	mtp_angle_r	hip_flexion_l	hip_adduction_l	hip_rotation_l	knee_angle_l	knee_angle_l_beta	ankle_angle_l	subtalar_angle_l	mtp_angle_l	L5_S1_Flex_Ext	L5_S1_Lat_Bending	L5_S1_axial_rotation	L4_L5_Flex_Ext	L4_L5_Lat_Bending	L4_L5_axial_rotation	L3_L4_Flex_Ext	L3_L4_Lat_Bending	L3_L4_axial_rotation	L2_L3_Flex_Ext	L2_L3_Lat_Bending	L2_L3_axial_rotation	L1_L2_Flex_Ext	L1_L2_Lat_Bending	L1_L2_axial_rotation	L1_T12_Flex_Ext	L1_T12_Lat_Bending	L1_T12_axial_rotation	Abs_r3	Abs_r2	Abs_r1	Abs_t1	Abs_t2	neck_flexion	neck_bending	neck_rotation	arm_flex_r	arm_add_r	arm_rot_r	elbow_flex_r	pro_sup_r	wrist_flex_r	wrist_dev_r	arm_flex_l	arm_add_l	arm_rot_l	elbow_flex_l	pro_sup_l	wrist_flex_l	wrist_dev_l
      1.47368421	      0.59968107	     -7.24969129	     87.25967596	      0.20797978	      0.86108966	      0.51571409	     11.96397538	      3.36652157	     10.96656962	     16.19889739	      0.28272409	     38.90619477	     -9.17262212	      0.00000000	      8.58183644	      0.12122010	     16.40566191	     13.99277287	      0.24421996	     40.83173389	    -17.29449834	      0.00000000	      0.54713430	      0.41357454	     -0.23112347	      1.01608311	      0.55005414	     -0.24556869	      0.89888694	      1.00556513	     -0.24556869	      0.62531979	      1.00556513	     -0.20223304	      0.50806891	      0.84336120	     -0.18778782	      0.31263254	      0.64062696	     -0.17334260	      3.90812559	      4.67843790	     -1.28543942	      0.00000000	      0.00000000	     27.80782329	     -0.67846837	      7.02065659	     32.33807101	     -9.86882836	     73.81417600	     62.68080141	     73.61096500	      1.19770921	      4.46217621	     33.15227350	    -25.61819903	     83.04387895	     69.41889546	     73.45407500	    -11.40363141	     -8.76089548
      1.49122807	      0.62952201	     -7.03715131	     87.12732315	      0.20817890	      0.86183323	      0.51436801	     11.37633916	      3.46117523	     11.67578483	     15.94624276	      0.27831444	     38.22671662	     -9.93531511	      0.00000000	      8.02551017	      0.07313515	     16.28107835	     13.85990396	      0.24190096	     40.49384030	    -17.33820668	      0.00000000	      0.54109321	      0.41102890	     -0.08015431	      1.00486421	      0.54666843	     -0.08516396	      0.88896204	      0.99937566	     -0.08516396	      0.61841543	      0.99937566	     -0.07013502	      0.50245916	      0.83817013	     -0.06512538	      0.30918066	      0.63668376	     -0.06011573	      3.86497472	      4.64964108	     -0.44579424	      0.00000000	      0.00000000	     27.74422859	     -1.07601423	      6.06788058	     33.72140776	     -9.62874519	     76.38906280	     62.13924595	     71.38602439	      2.32891089	      6.09302104	     36.19274079	    -24.36915968	     87.07257378	     71.33964315	     82.95032197	    -13.86539791	     -1.43613072
      1.50877193	      0.54554772	     -6.84708772	     87.01595066	      0.20834513	      0.86270111	      0.51333520	     10.89543864	      3.41024620	     12.31200461	     15.67686531	      0.27361292	     37.80173661	    -10.44970307	      0.00000000	      7.52488877	      0.13578673	     16.15256721	     13.62430681	      0.23778901	     40.09178091	    -17.34395841	      0.00000000	      0.53174243	      0.38939773	      0.01261394	      0.98749886	      0.51789898	      0.01340231	      0.87359963	      0.94678163	      0.01340231	      0.60772842	      0.94678163	      0.01103720	      0.49377602	      0.79405984	      0.01024883	      0.30383762	      0.60317708	      0.00946046	      3.79818298	      4.40494497	      0.07015495	      0.00000000	      0.00000000	     27.68171285	     -1.22626433	      5.06604272	     34.95771481	     -9.87368792	     79.34431125	     62.31618530	     67.38493324	      1.89958046	      7.73393064	     38.00468016	    -23.21270304	     89.08427743	     72.88503089	     85.95025446	    -11.71489976	      6.66408342
      1.52631579	      0.43778938	     -6.72044970	     87.00727600	      0.20849428	      0.86369709	      0.51222833	     10.49789597	      3.29907803	     12.76587427	     15.32332581	      0.26744249	     37.63432907	    -10.66643641	      0.00000000	      7.12184079	      0.22453705	     16.12962154	     13.32724524	      0.23260431	     39.70437256	    -17.38305502	      0.00000000	      0.53217229	      0.36080601	      0.04853525	      0.98829716	      0.47987199	      0.05156871	      0.87430586	      0.87726373	      0.05156871	      0.60821971	      0.87726373	      0.04246835	      0.49417519	      0.73575561	      0.03943489	      0.30408325	      0.55888851	      0.03640144	      3.80125345	      4.08150972	      0.26993852	      0.00000000	      0.00000000	     27.63436094	     -0.94960505	      4.56584828	     35.67486711	    -10.66158583	     82.04360206	     63.33711284	     59.87266430	     -0.49020514	      8.95835768	     38.67439179	    -22.23058717	     89.28282773	     73.67128040	     83.86984166	     -8.22419546	     12.53489298
      1.54385965	      0.38581260	     -6.50419433	     87.13355253	      0.20833419	      0.86499130	      0.51111357	      9.99643814	      3.16755930	     12.85606368	     14.84631864	      0.25911714	     37.73375895	    -10.35612552	      0.00000000	      6.65220850	      0.26503451	     16.19823829	     12.96223830	      0.22623374	     39.43507076	    -17.33463876	      0.00000000	      0.51550598	      0.34455635	      0.01999107	      0.95734615	      0.45825995	      0.02124051	      0.84692477	      0.83775431	      0.02124051	      0.58917178	      0.83775431	      0.01749219	      0.47869885	      0.70261931	      0.01624275	      0.29456011	      0.53371779	      0.01499330	      3.68220763	      3.89769036	      0.11118435	      0.00000000	      0.00000000	     27.55501778	     -0.42383755	      5.00165056	     36.65304324	    -11.87635454	     86.10764746	     65.35132139	     43.18910045	     -5.89067500	      7.89604127	     38.71888852	    -21.48320773	     88.79004591	     73.62417998	     77.22478553	     -6.72728209	     13.84134903
      1.56140351	      0.23349449	     -6.32469587	     87.31868605	      0.20830021	      0.86622276	      0.50991952	      9.63131286	      2.93008325	     12.67014446	     14.51972701	      0.25341704	     38.09398670	     -9.71867582	      0.00000000	      6.26729719	      0.39743815	     16.28964008	     12.60160268	      0.21993946	     39.23319557	    -17.29133228	      0.00000000	      0.50503580	      0.29847905	      0.02785562	      0.93790199	      0.39697713	      0.02959660	      0.82972332	      0.72572195	      0.02959660	      0.57720542	      0.72572195	      0.02437367	      0.46897624	      0.60865847	      0.02263269	      0.28857746	      0.46234404	      0.02089172	      3.60742022	      3.37645467	      0.15492461	      0.00000000	      0.00000000	     27.49130097	      0.30222248	      4.47440556	     36.60886383	    -13.45739297	     88.23809335	     68.51204392	     21.51609704	    -11.51274580	      4.98840377	     39.00106634	    -20.67891530	     88.67241658	     73.36428229	     66.81627309	     -5.89139193	     13.99390212
      1.57894737	      0.03978793	     -6.23849829	     87.49544676	      0.20831117	      0.86727128	      0.50871635	      9.41401668	      2.65913415	     12.41841064	     14.29665835	      0.24952376	     38.46495666	     -9.06536202	      0.00000000	      5.99490843	      0.55740843	     16.42703007	     12.22324341	      0.21333584	     39.06674192	    -17.25351251	      0.00000000	      0.50573637	      0.24311820	      0.06348922	      0.93920301	      0.32334720	      0.06745729	      0.83087428	      0.59111758	      0.06745729	      0.57800609	      0.59111758	      0.05555306	      0.46962679	      0.49576663	      0.05158499	      0.28897776	      0.37659009	      0.04761691	      3.61242430	      2.75020166	      0.35310798	      0.00000000	      0.00000000	     27.47415069	      0.97769751	      3.67768429	     35.97837096	    -15.05786591	     88.57821227	     71.43268791	      6.84488760	    -15.08602216	      2.52074236	     39.12078183	    -19.81513385	     88.16738830	     72.87897518	     58.17118664	     -4.38409486	     13.95950472
